<?xml version="1.0" encoding="UTF-8"?>
<!DOCTYPE svg PUBLIC "-//W3C//DTD SVG 1.1//EN" "http://www.w3.org/Graphics/SVG/1.1/DTD/svg11.dtd">
<!-- Creator: CorelDRAW 2019 -->
<svg xmlns="http://www.w3.org/2000/svg" xml:space="preserve" width="50mm" height="50mm" version="1.1" style="shape-rendering:geometricPrecision; text-rendering:geometricPrecision; image-rendering:optimizeQuality; fill-rule:evenodd; clip-rule:evenodd"
viewBox="0 0 5000 5000"
 xmlns:xlink="http://www.w3.org/1999/xlink">
 <defs>
  <style type="text/css">
   <![CDATA[
    .str0 {stroke:#FEFEFE;stroke-width:141.11;stroke-miterlimit:22.9256}
    .fil1 {fill:#FEFEFE}
    .fil0 {fill:#2A3F54}
   ]]>
  </style>
 </defs>
 <g id="Layer_x0020_1">
  <metadata id="CorelCorpID_0Corel-Layer"/>
  <g id="_887043144">
   <circle class="fil0 str0" cx="2493.87" cy="2506.13" r="2403.47"/>
   <path class="fil1" d="M1957.98 2328.33l12.36 -25.14 3.26 -13 11.97 -27.34 -0.58 -4.58c-0.24,-26.21 -7.89,-21.62 14.5,-21.62 118.02,-147.52 237.74,-313.75 543.83,-291.99 231.24,16.44 416.51,192.02 473.77,362.93l13.21 21.3 -0.91 6.83 15.64 47.01 -1.99 36.25c26.37,43.86 22.39,141.59 -0.25,197 1.08,24.97 12.1,48.82 -19.54,62.29 3.62,46.46 7.44,23.26 -11.2,31.8l-26.63 62.03c-1.03,5.1 -2.03,11 -3.51,15.21 -1.37,3.91 -3.32,9.9 -4.78,13.72 -1.32,3.45 -5.55,13.24 -6.62,11.37 -1.01,-1.77 -5.14,6.54 -7.8,9.73 -80.21,86.65 -148.17,164.3 -292.12,214.61 -129.94,45.42 -319.04,34.52 -432.68,-31.86 -211.42,-123.49 -358.67,-333.88 -279.93,-676.55zm225.75 -1437.37l-19.8 54.24 -8.31 85.2c-1.9,43.78 2.06,59.5 -19.99,93.16 1.41,29.07 8.85,65.05 -14.07,82.22 0.3,105.64 20.38,79.73 -143.27,151.4 -92.04,40.31 -125.29,-9.62 -272.96,-129.59 -157.66,-128.09 -156.82,-137.55 -388.07,93.3 -340.4,339.84 -151.87,223.85 54.17,599.59l-8.33 28.07 -32.22 55.94 3.03 11.62 -31.19 57.48 -6.7 46.34 -397.38 63.56c-5.52,1.55 -15.67,4.14 -20.43,6.24 -75.96,33.59 -49.47,186.84 -49.46,287.22 0.01,306.77 -51.6,330.1 197.95,358.16 210.3,23.65 252.57,14.04 279.37,96.46l26.96 64.42 47.83 109.43c-41.89,36.01 -64.72,68.6 -89.47,104.91l-29.47 32.87c-46.02,62.77 -121.76,134.94 -124.43,234.49l14.88 19.3 374.94 370.07c71.58,28.56 223.05,-123.78 291.55,-167.15 103.48,-65.52 51.33,-101.18 189.12,-34.91 15.49,7.44 32.12,13.27 49.72,20.22 134.38,53.03 60.8,227.11 135.21,466.51 109.65,27.25 459.87,23.21 587.26,7.93l32.59 -68.16c1.34,-2.76 3.83,-7.41 5.78,-11.09l54.04 -357.92c25.1,-24.78 147.31,-78.51 198.93,-94.64l333.89 241.04c53.68,13.59 182.11,-93.22 220.48,-128.22 31.43,-28.66 61.6,-59.16 90.24,-90.38 35.47,-38.66 36.43,-61.09 81.55,-91.04 10.43,-21.63 8.89,-23.48 20.89,-43.84 25.3,-42.96 9.43,-15.41 27.54,-33.15l16.91 -72.41c-43.84,-46.04 -85.23,-98.02 -127.57,-149.49l-108.42 -209.13 12.51 -25.72 0.61 -4.05 13.73 -21.63 -2.78 -12.17 20.6 -24.67c7.17,-26.5 20.92,-56.15 34.21,-73.96l426.69 -74.5c10.48,-69.45 -10.42,23.86 6.02,-24.81 0.95,-2.8 4.78,-4.61 5.56,-10.7 0.77,-6.01 4.51,-6.53 6.81,-9.76 17.73,-63.22 16.07,-476.42 -1.69,-533.17 -24.34,-52.79 -111.9,-55.24 -200.87,-66.92 -256.58,-33.67 -239.69,-12.62 -276.39,-121.85l-18.91 -29.18 2.13 -9.65c-22.5,0 -14.69,4.54 -14.15,-22.07l0.41 -3.36c-24.22,0 -15.3,4.67 -14.49,-25.03l-13.98 -50.74c56.34,-64.23 92.82,-120.9 139.09,-178.31 16.59,-47.03 8.19,-23.92 26.93,-37.27 136.43,-146.21 74.51,-171.72 -158.56,-403.67 -205.35,-204.37 -174.1,-159.98 -285.69,-108.07 0,22.35 5.27,17.26 -17.31,13.45 -12.81,14.2 -15.93,18.45 -31.62,37.1l-19.37 8.54 -17.87 14.08c-23.71,16.92 -144.82,117.06 -177.13,123.84 -51.24,-8.46 -169.5,-61.38 -201.75,-87.71l-18.85 -131.72c-21.45,-31.62 -18.15,-30.41 -16.21,-78.53 -5.98,-77.35 -18.17,-176.39 -50.96,-230.74 -97.42,-13.23 -350.43,-5.21 -477.37,-6 -86.5,-0.53 -101.22,-14.29 -122.64,48.68z"/>
  </g>
 </g>
</svg>
