<svg xmlns="http://www.w3.org/2000/svg" viewBox="0 0 501.37 86.42"><defs><style>.cls-1,.cls-2,.cls-3,.cls-4{fill:#231f20;}.cls-2,.cls-3{stroke:#fff;stroke-miterlimit:22.93;}.cls-2{stroke-width:3px;}.cls-3{stroke-width:1.5px;}.cls-4{fill-rule:evenodd;}</style></defs><title>Recurso 2</title><g id="Capa_2" data-name="Capa 2"><g id="Capa_1-2" data-name="Capa 1"><path class="cls-1" d="M191.72,84.72h-9.56l-7.63-58.33-7.62,58.33h-9.57L170.17,0h4.72c3.64,0,4.24,2.3,4.6,4.6ZM141.61,0H107a2.68,2.68,0,0,0-2.66,2.66V8.59h12.23V82.91c0,.6.36,1.81,2.42,1.81h6.17V10.65a2.23,2.23,0,0,1,2.18-2.06h6.78c2.78,0,4.11-1.21,4.6-2.3ZM70.44,76.13V2.66A2.77,2.77,0,0,0,67.78,0H61.73V84.72H82.55c2.78,0,4.11-1.21,4.72-2.3.36-.72,1.81-4.11,2.78-6.29ZM34.37,84.72H24.81L17.19,26.39,9.56,84.72H0L12.83,0h4.72c3.63,0,4.24,2.3,4.6,4.6Z"/><path class="cls-1" d="M455.8,85.57h-9.56l-7.63-58.34L431,85.57h-9.57L434.25.85H439c3.64,0,4.24,2.3,4.6,4.6Zm-68-13.07c0,3.27-2.18,4.48-4.6,4.48h-5.69V9.56h5.69c2.42,0,4.6,1.21,4.6,4.36ZM368.77.85V85.57H385.6a10.77,10.77,0,0,0,10.77-10.65V11.5A10.77,10.77,0,0,0,385.6.85Zm-45,77.94a4.79,4.79,0,0,1-4.6-4.72V12.35a4.78,4.78,0,0,1,4.6-4.72h1.33a4.62,4.62,0,0,1,4.6,4.72V74.07a4.62,4.62,0,0,1-4.6,4.72ZM321.33,0a10.82,10.82,0,0,0-10.89,10.77v65a11,11,0,0,0,10.89,10.65H328a10.9,10.9,0,0,0,10.54-10.65v-65A10.91,10.91,0,0,0,328,0ZM284.17.85h-5.32a3.83,3.83,0,0,0-3.88,3l-9.56,48.78L255.36,4A3.8,3.8,0,0,0,251.49.85h-5.32V85.57h8.59V41.88L259.84,64c.49,1.81,1.46,6.9,6.54,6.9H269l6.54-29.05V85.57h8.59Z"/><circle class="cls-2" cx="484.72" cy="41.84" r="12.79"/><path class="cls-1" d="M480.2,35.52v.18h.23a1.15,1.15,0,0,1,1.15,1.13v10A1.14,1.14,0,0,1,480.43,48h-.23v.18h3.94V48h-.23a1.15,1.15,0,0,1-1.15-1.13V36.08c.23,0,1.32,0,2.24,0,1.34.07,2.19,1.12,2.24,2.75a4.22,4.22,0,0,1-.11,1.08,2.7,2.7,0,0,1-2.82,1.87c-.54,0-1,0-1,0V42c.67,0,1.19.62,1.66,1.21.14.18,2.18,3.13,2.38,3.38a3.88,3.88,0,0,0,3.15,1.58h1V48a3.28,3.28,0,0,1-2.46-1.36c-.69-.77-2.25-3-2.25-3a4.41,4.41,0,0,0-1.29-1.27,3.34,3.34,0,0,0,3.06-3.44,3.2,3.2,0,0,0-3.52-3.39Z"/><path class="cls-3" d="M480.2,35.52v.18h.23a1.15,1.15,0,0,1,1.15,1.13v10A1.14,1.14,0,0,1,480.43,48h-.23v.18h3.94V48h-.23a1.15,1.15,0,0,1-1.15-1.13V36.08c.23,0,1.32,0,2.24,0,1.34.07,2.19,1.12,2.24,2.75a4.22,4.22,0,0,1-.11,1.08,2.7,2.7,0,0,1-2.82,1.87c-.54,0-1,0-1,0V42c.67,0,1.19.62,1.66,1.21.14.18,2.18,3.13,2.38,3.38a3.88,3.88,0,0,0,3.15,1.58h1V48a3.28,3.28,0,0,1-2.46-1.36c-.69-.77-2.25-3-2.25-3a4.41,4.41,0,0,0-1.29-1.27,3.34,3.34,0,0,0,3.06-3.44,3.2,3.2,0,0,0-3.52-3.39Z"/><polygon class="cls-4" points="470.85 21.02 478.17 21.02 484.83 5.19 488.32 13.34 490.52 12.36 484.83 0 476.21 18.58 473.07 18.58 471.41 10.54 477.31 14.34 478.29 12.21 468.06 4.88 470.85 21.02"/><polygon class="cls-4" points="484.83 19.58 481.25 17.1 482.5 15.15 484.86 16.72 501.37 4.74 498.82 21 491.89 21.04 490.11 17.15 492.38 16.44 493.39 18.52 496.53 18.56 498.15 10.5 484.83 19.58"/><polygon class="cls-4" points="471.25 24.79 498.15 24.79 498.82 22.44 470.58 22.44 471.25 24.79"/></g></g></svg>